<svg width="19" height="19" viewBox="0 0 19 19" fill="none" xmlns="http://www.w3.org/2000/svg">
<g clip-path="url(#clip0_1_226)">
<path d="M18.3633 9.18167C18.3633 4.11077 14.2526 0 9.18167 0C4.11077 0 0 4.11077 0 9.18167C0 13.7644 3.35759 17.563 7.74704 18.2518V11.8358H5.41575V9.18167H7.74704V7.15884C7.74704 4.85768 9.11783 3.58659 11.2151 3.58659C12.2193 3.58659 13.2704 3.76592 13.2704 3.76592V6.02547H12.1126C10.9721 6.02547 10.6163 6.73329 10.6163 7.46011V9.18167H13.1628L12.7557 11.8358H10.6163V18.2518C15.0058 17.563 18.3633 13.7644 18.3633 9.18167Z" fill="white"/>
</g>
<defs>
<clipPath id="clip0_1_226">
<rect width="18.3633" height="18.3633" fill="white"/>
</clipPath>
</defs>
</svg>
