<svg width="15" height="16" viewBox="0 0 15 16" fill="none" xmlns="http://www.w3.org/2000/svg">
<path d="M14.5 14.3906C14.4963 14.3976 14.4873 14.4113 14.4675 14.4322C14.4147 14.4883 14.3121 14.5649 14.1363 14.6506C13.7853 14.8218 13.2501 14.9785 12.5631 15.1088C11.1983 15.3676 9.35695 15.5 7.5 15.5C5.64305 15.5 3.80174 15.3676 2.4369 15.1088C1.74989 14.9785 1.21474 14.8218 0.863676 14.6506C0.687867 14.5649 0.585308 14.4883 0.532465 14.4322C0.512725 14.4113 0.503747 14.3976 0.500011 14.3906C0.502246 13.4216 0.848659 11.9473 1.88215 10.7224C2.90274 9.51285 4.63208 8.5 7.5 8.5C10.3679 8.5 12.0973 9.51285 13.1179 10.7224C14.1513 11.9473 14.4978 13.4216 14.5 14.3906ZM14.5023 14.385C14.5024 14.385 14.5022 14.386 14.5013 14.388C14.5017 14.3861 14.5022 14.385 14.5023 14.385ZM0.49767 14.385C0.497784 14.385 0.498256 14.3861 0.498747 14.388C0.497801 14.386 0.497556 14.385 0.49767 14.385Z" stroke="#7F012F"/>
<circle cx="7.5" cy="3.5" r="3" stroke="#7F012F"/>
</svg>
