<svg width="20" height="19" viewBox="0 0 20 19" fill="none" xmlns="http://www.w3.org/2000/svg">
<g clip-path="url(#clip0_1_219)">
<path d="M9.9805 1.65342C12.4337 1.65342 12.7242 1.66418 13.689 1.70722C14.5857 1.74667 15.0699 1.89731 15.3927 2.02284C15.8195 2.18782 16.1279 2.38867 16.4471 2.70788C16.7699 3.03067 16.9672 3.33553 17.1322 3.76233C17.2577 4.08513 17.4083 4.5729 17.4478 5.46596C17.4908 6.43434 17.5016 6.72486 17.5016 9.1745C17.5016 11.6277 17.4908 11.9182 17.4478 12.883C17.4083 13.7797 17.2577 14.2639 17.1322 14.5867C16.9672 15.0135 16.7663 15.3219 16.4471 15.6411C16.1243 15.9639 15.8195 16.1612 15.3927 16.3262C15.0699 16.4517 14.5821 16.6023 13.689 16.6418C12.7207 16.6848 12.4301 16.6956 9.9805 16.6956C7.52727 16.6956 7.23676 16.6848 6.27197 16.6418C5.37532 16.6023 4.89113 16.4517 4.56834 16.3262C4.14153 16.1612 3.83308 15.9603 3.51388 15.6411C3.19108 15.3183 2.99382 15.0135 2.82884 14.5867C2.70331 14.2639 2.55267 13.7761 2.51322 12.883C2.47018 11.9147 2.45942 11.6241 2.45942 9.1745C2.45942 6.72127 2.47018 6.43076 2.51322 5.46596C2.55267 4.56932 2.70331 4.08513 2.82884 3.76233C2.99382 3.33553 3.19467 3.02708 3.51388 2.70788C3.83667 2.38508 4.14153 2.18782 4.56834 2.02284C4.89113 1.89731 5.37891 1.74667 6.27197 1.70722C7.23676 1.66418 7.52727 1.65342 9.9805 1.65342ZM9.9805 0C7.48782 0 7.17579 0.0107598 6.19665 0.0537989C5.2211 0.096838 4.5504 0.254648 3.96938 0.480603C3.36324 0.717318 2.85036 1.02935 2.34106 1.54223C1.82818 2.05153 1.51615 2.56441 1.27943 3.16696C1.05348 3.75157 0.895666 4.41868 0.852627 5.39423C0.809588 6.37696 0.798828 6.68899 0.798828 9.18167C0.798828 11.6744 0.809588 11.9864 0.852627 12.9655C0.895666 13.9411 1.05348 14.6118 1.27943 15.1928C1.51615 15.7989 1.82818 16.3118 2.34106 16.8211C2.85036 17.3304 3.36324 17.646 3.96579 17.8792C4.5504 18.1051 5.21751 18.2629 6.19306 18.306C7.1722 18.349 7.48423 18.3598 9.97692 18.3598C12.4696 18.3598 12.7816 18.349 13.7608 18.306C14.7363 18.2629 15.407 18.1051 15.988 17.8792C16.5906 17.646 17.1035 17.3304 17.6128 16.8211C18.1221 16.3118 18.4377 15.7989 18.6708 15.1964C18.8968 14.6118 19.0546 13.9447 19.0976 12.9691C19.1407 11.99 19.1514 11.6779 19.1514 9.18526C19.1514 6.69258 19.1407 6.38055 19.0976 5.40141C19.0546 4.42585 18.8968 3.75516 18.6708 3.17413C18.4449 2.56441 18.1328 2.05153 17.6199 1.54223C17.1106 1.03294 16.5978 0.717318 15.9952 0.48419C15.4106 0.258235 14.7435 0.100425 13.7679 0.0573855C12.7852 0.0107598 12.4732 0 9.9805 0Z" fill="white"/>
<path d="M9.98004 4.46533C7.37617 4.46533 5.26367 6.57783 5.26367 9.1817C5.26367 11.7856 7.37617 13.8981 9.98004 13.8981C12.5839 13.8981 14.6964 11.7856 14.6964 9.1817C14.6964 6.57783 12.5839 4.46533 9.98004 4.46533ZM9.98004 12.2411C8.29076 12.2411 6.92068 10.871 6.92068 9.1817C6.92068 7.49242 8.29076 6.12234 9.98004 6.12234C11.6693 6.12234 13.0394 7.49242 13.0394 9.1817C13.0394 10.871 11.6693 12.2411 9.98004 12.2411Z" fill="white"/>
<path d="M15.9844 4.27882C15.9844 4.88854 15.4894 5.3799 14.8833 5.3799C14.2736 5.3799 13.7822 4.88495 13.7822 4.27882C13.7822 3.6691 14.2772 3.17773 14.8833 3.17773C15.4894 3.17773 15.9844 3.67268 15.9844 4.27882Z" fill="white"/>
</g>
<defs>
<clipPath id="clip0_1_219">
<rect width="18.3633" height="18.3633" fill="white" transform="translate(0.798828)"/>
</clipPath>
</defs>
</svg>
