<svg width="19" height="19" viewBox="0 0 19 19" fill="none" xmlns="http://www.w3.org/2000/svg">
<g clip-path="url(#clip0_1_216)">
<path d="M17.2023 0H1.55397C0.804376 0 0.198242 0.591788 0.198242 1.32345V17.0363C0.198242 17.768 0.804376 18.3633 1.55397 18.3633H17.2023C17.9519 18.3633 18.5616 17.768 18.5616 17.0399V1.32345C18.5616 0.591788 17.9519 0 17.2023 0ZM5.64627 15.6483H2.92047V6.88267H5.64627V15.6483ZM4.28337 5.68833C3.40824 5.68833 2.70168 4.98178 2.70168 4.11023C2.70168 3.23869 3.40824 2.53213 4.28337 2.53213C5.15491 2.53213 5.86147 3.23869 5.86147 4.11023C5.86147 4.97819 5.15491 5.68833 4.28337 5.68833ZM15.8465 15.6483H13.1243V11.3874C13.1243 10.3724 13.1064 9.06332 11.7076 9.06332C10.2909 9.06332 10.0757 10.1716 10.0757 11.3157V15.6483H7.35708V6.88267H9.96812V8.08059H10.004C10.3662 7.39197 11.2557 6.66389 12.5792 6.66389C15.3372 6.66389 15.8465 8.4787 15.8465 10.8387V15.6483V15.6483Z" fill="white"/>
</g>
<defs>
<clipPath id="clip0_1_216">
<rect width="18.3633" height="18.3633" fill="white" transform="translate(0.198242)"/>
</clipPath>
</defs>
</svg>
