<svg width="140" height="19" viewBox="0 0 140 19" fill="none" xmlns="http://www.w3.org/2000/svg">
<g opacity="0.5">
<g clip-path="url(#clip0_1_215)">
<path d="M138.202 0H122.554C121.804 0 121.198 0.591788 121.198 1.32345V17.0363C121.198 17.768 121.804 18.3633 122.554 18.3633H138.202C138.952 18.3633 139.562 17.768 139.562 17.0399V1.32345C139.562 0.591788 138.952 0 138.202 0ZM126.646 15.6483H123.92V6.88267H126.646V15.6483ZM125.283 5.68833C124.408 5.68833 123.702 4.98178 123.702 4.11023C123.702 3.23869 124.408 2.53213 125.283 2.53213C126.155 2.53213 126.861 3.23869 126.861 4.11023C126.861 4.97819 126.155 5.68833 125.283 5.68833ZM136.847 15.6483H134.124V11.3874C134.124 10.3724 134.106 9.06332 132.708 9.06332C131.291 9.06332 131.076 10.1716 131.076 11.3157V15.6483H128.357V6.88267H130.968V8.08059H131.004C131.366 7.39197 132.256 6.66389 133.579 6.66389C136.337 6.66389 136.847 8.4787 136.847 10.8387V15.6483V15.6483Z" fill="white"/>
</g>
<g clip-path="url(#clip1_1_215)">
<path d="M89.9805 1.65342C92.4337 1.65342 92.7242 1.66418 93.689 1.70722C94.5857 1.74667 95.0699 1.89731 95.3927 2.02284C95.8195 2.18782 96.1279 2.38867 96.4471 2.70788C96.7699 3.03067 96.9672 3.33553 97.1322 3.76233C97.2577 4.08513 97.4083 4.5729 97.4478 5.46596C97.4908 6.43434 97.5016 6.72486 97.5016 9.1745C97.5016 11.6277 97.4908 11.9182 97.4478 12.883C97.4083 13.7797 97.2577 14.2639 97.1322 14.5867C96.9672 15.0135 96.7663 15.3219 96.4471 15.6411C96.1243 15.9639 95.8195 16.1612 95.3927 16.3262C95.0699 16.4517 94.5821 16.6023 93.689 16.6418C92.7207 16.6848 92.4301 16.6956 89.9805 16.6956C87.5273 16.6956 87.2368 16.6848 86.272 16.6418C85.3753 16.6023 84.8911 16.4517 84.5683 16.3262C84.1415 16.1612 83.8331 15.9603 83.5139 15.6411C83.1911 15.3183 82.9938 15.0135 82.8288 14.5867C82.7033 14.2639 82.5527 13.7761 82.5132 12.883C82.4702 11.9147 82.4594 11.6241 82.4594 9.1745C82.4594 6.72127 82.4702 6.43076 82.5132 5.46596C82.5527 4.56932 82.7033 4.08513 82.8288 3.76233C82.9938 3.33553 83.1947 3.02708 83.5139 2.70788C83.8367 2.38508 84.1415 2.18782 84.5683 2.02284C84.8911 1.89731 85.3789 1.74667 86.272 1.70722C87.2368 1.66418 87.5273 1.65342 89.9805 1.65342ZM89.9805 0C87.4878 0 87.1758 0.0107598 86.1966 0.0537989C85.2211 0.096838 84.5504 0.254648 83.9694 0.480603C83.3632 0.717318 82.8504 1.02935 82.3411 1.54223C81.8282 2.05153 81.5161 2.56441 81.2794 3.16696C81.0535 3.75157 80.8957 4.41868 80.8526 5.39423C80.8096 6.37696 80.7988 6.68899 80.7988 9.18167C80.7988 11.6744 80.8096 11.9864 80.8526 12.9655C80.8957 13.9411 81.0535 14.6118 81.2794 15.1928C81.5161 15.7989 81.8282 16.3118 82.3411 16.8211C82.8504 17.3304 83.3632 17.646 83.9658 17.8792C84.5504 18.1051 85.2175 18.2629 86.1931 18.306C87.1722 18.349 87.4842 18.3598 89.9769 18.3598C92.4696 18.3598 92.7816 18.349 93.7608 18.306C94.7363 18.2629 95.407 18.1051 95.988 17.8792C96.5906 17.646 97.1035 17.3304 97.6128 16.8211C98.1221 16.3118 98.4377 15.7989 98.6708 15.1964C98.8968 14.6118 99.0546 13.9447 99.0976 12.9691C99.1407 11.99 99.1514 11.6779 99.1514 9.18526C99.1514 6.69258 99.1407 6.38055 99.0976 5.40141C99.0546 4.42585 98.8968 3.75516 98.6708 3.17413C98.4449 2.56441 98.1328 2.05153 97.6199 1.54223C97.1106 1.03294 96.5978 0.717318 95.9952 0.48419C95.4106 0.258235 94.7435 0.100425 93.7679 0.0573855C92.7852 0.0107598 92.4732 0 89.9805 0Z" fill="white"/>
<path d="M89.98 4.46533C87.3762 4.46533 85.2637 6.57783 85.2637 9.1817C85.2637 11.7856 87.3762 13.8981 89.98 13.8981C92.5839 13.8981 94.6964 11.7856 94.6964 9.1817C94.6964 6.57783 92.5839 4.46533 89.98 4.46533ZM89.98 12.2411C88.2908 12.2411 86.9207 10.871 86.9207 9.1817C86.9207 7.49242 88.2908 6.12234 89.98 6.12234C91.6693 6.12234 93.0394 7.49242 93.0394 9.1817C93.0394 10.871 91.6693 12.2411 89.98 12.2411Z" fill="white"/>
<path d="M95.9844 4.27882C95.9844 4.88854 95.4894 5.3799 94.8833 5.3799C94.2736 5.3799 93.7822 4.88495 93.7822 4.27882C93.7822 3.6691 94.2772 3.17773 94.8833 3.17773C95.4894 3.17773 95.9844 3.67268 95.9844 4.27882Z" fill="white"/>
</g>
<g clip-path="url(#clip2_1_215)">
<path d="M46.1763 16.6418C53.1042 16.6418 56.8945 10.9008 56.8945 5.92367C56.8945 5.76227 56.8909 5.59729 56.8837 5.43589C57.6211 4.90267 58.2574 4.24219 58.7628 3.4855C58.0761 3.79103 57.347 3.99056 56.6004 4.07729C57.3865 3.6061 57.9751 2.86587 58.2571 1.99384C57.5175 2.43211 56.7088 2.74126 55.8655 2.90806C55.2973 2.30433 54.5461 1.90459 53.7279 1.77064C52.9097 1.63669 52.0702 1.77599 51.3392 2.16701C50.6081 2.55804 50.0262 3.179 49.6835 3.93389C49.3408 4.68878 49.2562 5.53556 49.443 6.3433C47.9456 6.26816 46.4807 5.87917 45.1433 5.20156C43.8058 4.52395 42.6257 3.57284 41.6795 2.40989C41.1985 3.23909 41.0514 4.2203 41.2679 5.15412C41.4844 6.08793 42.0483 6.90426 42.8451 7.43721C42.2469 7.41822 41.6619 7.25717 41.1383 6.96737V7.01399C41.1377 7.88418 41.4385 8.7277 41.9896 9.40116C42.5407 10.0746 43.308 10.5365 44.161 10.7082C43.6069 10.8598 43.0254 10.8819 42.4613 10.7727C42.7021 11.5211 43.1704 12.1756 43.801 12.645C44.4317 13.1144 45.1931 13.3752 45.9791 13.391C44.6447 14.4391 42.9964 15.0076 41.2996 15.0049C40.9987 15.0045 40.6981 14.986 40.3994 14.9497C42.1232 16.0556 44.1283 16.6429 46.1763 16.6418Z" fill="white"/>
</g>
<g clip-path="url(#clip3_1_215)">
<path d="M18.3633 9.18167C18.3633 4.11077 14.2526 0 9.18167 0C4.11077 0 0 4.11077 0 9.18167C0 13.7644 3.35759 17.563 7.74704 18.2518V11.8358H5.41575V9.18167H7.74704V7.15884C7.74704 4.85768 9.11783 3.58659 11.2151 3.58659C12.2193 3.58659 13.2704 3.76592 13.2704 3.76592V6.02547H12.1126C10.9721 6.02547 10.6163 6.73329 10.6163 7.46011V9.18167H13.1628L12.7557 11.8358H10.6163V18.2518C15.0058 17.563 18.3633 13.7644 18.3633 9.18167Z" fill="white"/>
</g>
</g>
<defs>
<clipPath id="clip0_1_215">
<rect width="18.3633" height="18.3633" fill="white" transform="translate(121.198)"/>
</clipPath>
<clipPath id="clip1_1_215">
<rect width="18.3633" height="18.3633" fill="white" transform="translate(80.7988)"/>
</clipPath>
<clipPath id="clip2_1_215">
<rect width="18.3633" height="18.3633" fill="white" transform="translate(40.3994)"/>
</clipPath>
<clipPath id="clip3_1_215">
<rect width="18.3633" height="18.3633" fill="white"/>
</clipPath>
</defs>
</svg>
