<svg width="140" height="19" viewBox="0 0 140 19" fill="none" xmlns="http://www.w3.org/2000/svg">
<g opacity="0.5">
<g clip-path="url(#clip0_1_95)">
<path d="M138.203 0H122.555C121.805 0 121.199 0.591788 121.199 1.32345V17.0363C121.199 17.768 121.805 18.3633 122.555 18.3633H138.203C138.953 18.3633 139.563 17.768 139.563 17.0399V1.32345C139.563 0.591788 138.953 0 138.203 0ZM126.647 15.6483H123.921V6.88267H126.647V15.6483ZM125.284 5.68833C124.409 5.68833 123.703 4.98178 123.703 4.11023C123.703 3.23869 124.409 2.53213 125.284 2.53213C126.156 2.53213 126.862 3.23869 126.862 4.11023C126.862 4.97819 126.156 5.68833 125.284 5.68833ZM136.848 15.6483H134.125V11.3874C134.125 10.3724 134.107 9.06332 132.709 9.06332C131.292 9.06332 131.077 10.1716 131.077 11.3157V15.6483H128.358V6.88267H130.969V8.08059H131.005C131.367 7.39197 132.257 6.66389 133.58 6.66389C136.338 6.66389 136.848 8.4787 136.848 10.8387V15.6483Z" fill="white"/>
</g>
<g clip-path="url(#clip1_1_95)">
<path d="M89.9785 1.65342C92.4318 1.65342 92.7223 1.66418 93.6871 1.70722C94.5837 1.74667 95.0679 1.89731 95.3907 2.02284C95.8175 2.18782 96.126 2.38867 96.4452 2.70788C96.768 3.03067 96.9652 3.33553 97.1302 3.76233C97.2557 4.08513 97.4064 4.5729 97.4458 5.46596C97.4889 6.43434 97.4996 6.72486 97.4996 9.1745C97.4996 11.6277 97.4889 11.9182 97.4458 12.883C97.4064 13.7797 97.2557 14.2639 97.1302 14.5867C96.9652 15.0135 96.7644 15.3219 96.4452 15.6411C96.1224 15.9639 95.8175 16.1612 95.3907 16.3262C95.0679 16.4517 94.5801 16.6023 93.6871 16.6418C92.7187 16.6848 92.4282 16.6956 89.9785 16.6956C87.5253 16.6956 87.2348 16.6848 86.27 16.6418C85.3734 16.6023 84.8892 16.4517 84.5664 16.3262C84.1396 16.1612 83.8311 15.9603 83.5119 15.6411C83.1891 15.3183 82.9919 15.0135 82.8269 14.5867C82.7014 14.2639 82.5507 13.7761 82.5113 12.883C82.4682 11.9147 82.4575 11.6241 82.4575 9.1745C82.4575 6.72127 82.4682 6.43076 82.5113 5.46596C82.5507 4.56932 82.7014 4.08513 82.8269 3.76233C82.9919 3.33553 83.1927 3.02708 83.5119 2.70788C83.8347 2.38508 84.1396 2.18782 84.5664 2.02284C84.8892 1.89731 85.377 1.74667 86.27 1.70722C87.2348 1.66418 87.5253 1.65342 89.9785 1.65342ZM89.9785 0C87.4859 0 87.1738 0.0107598 86.1947 0.0537989C85.2191 0.096838 84.5484 0.254648 83.9674 0.480603C83.3613 0.717318 82.8484 1.02935 82.3391 1.54223C81.8262 2.05153 81.5142 2.56441 81.2775 3.16696C81.0515 3.75157 80.8937 4.41868 80.8507 5.39423C80.8076 6.37696 80.7969 6.68899 80.7969 9.18167C80.7969 11.6744 80.8076 11.9864 80.8507 12.9655C80.8937 13.9411 81.0515 14.6118 81.2775 15.1928C81.5142 15.7989 81.8262 16.3118 82.3391 16.8211C82.8484 17.3304 83.3613 17.646 83.9638 17.8792C84.5484 18.1051 85.2156 18.2629 86.1911 18.306C87.1702 18.349 87.4823 18.3598 89.975 18.3598C92.4676 18.3598 92.7797 18.349 93.7588 18.306C94.7344 18.2629 95.4051 18.1051 95.9861 17.8792C96.5886 17.646 97.1015 17.3304 97.6108 16.8211C98.1201 16.3118 98.4357 15.7989 98.6689 15.1964C98.8948 14.6118 99.0526 13.9447 99.0957 12.9691C99.1387 11.99 99.1495 11.6779 99.1495 9.18526C99.1495 6.69258 99.1387 6.38055 99.0957 5.40141C99.0526 4.42585 98.8948 3.75516 98.6689 3.17413C98.4429 2.56441 98.1309 2.05153 97.618 1.54223C97.1087 1.03294 96.5958 0.717318 95.9933 0.48419C95.4087 0.258235 94.7415 0.100425 93.766 0.0573855C92.7833 0.0107598 92.4712 0 89.9785 0Z" fill="white"/>
<path d="M89.9781 4.46484C87.3742 4.46484 85.2617 6.57735 85.2617 9.18121C85.2617 11.7851 87.3742 13.8976 89.9781 13.8976C92.582 13.8976 94.6945 11.7851 94.6945 9.18121C94.6945 6.57735 92.582 4.46484 89.9781 4.46484ZM89.9781 12.2406C88.2888 12.2406 86.9187 10.8705 86.9187 9.18121C86.9187 7.49193 88.2888 6.12185 89.9781 6.12185C91.6674 6.12185 93.0374 7.49193 93.0374 9.18121C93.0374 10.8705 91.6674 12.2406 89.9781 12.2406Z" fill="white"/>
<path d="M95.9834 4.27882C95.9834 4.88854 95.4885 5.3799 94.8823 5.3799C94.2726 5.3799 93.7812 4.88495 93.7812 4.27882C93.7812 3.6691 94.2762 3.17773 94.8823 3.17773C95.4885 3.17773 95.9834 3.67268 95.9834 4.27882Z" fill="white"/>
</g>
<g clip-path="url(#clip2_1_95)">
<path d="M46.1754 16.6415C53.1032 16.6415 56.8935 10.9004 56.8935 5.9233C56.8935 5.76191 56.8899 5.59692 56.8828 5.43553C57.6201 4.9023 58.2564 4.24183 58.7618 3.48514C58.0751 3.79066 57.346 3.99019 56.5994 4.07693C57.3855 3.60573 57.9741 2.86551 58.2561 1.99347C57.5166 2.43174 56.7078 2.7409 55.8645 2.9077C55.2963 2.30396 54.5451 1.90422 53.7269 1.77027C52.9088 1.63632 52.0693 1.77563 51.3382 2.16665C50.6072 2.55767 50.0253 3.17863 49.6825 3.93352C49.3398 4.68841 49.2553 5.53519 49.442 6.34293C47.9446 6.26779 46.4797 5.87881 45.1423 5.20119C43.8049 4.52358 42.6248 3.57247 41.6785 2.40952C41.1975 3.23872 41.0504 4.21994 41.2669 5.15375C41.4834 6.08756 42.0474 6.9039 42.8441 7.43684C42.246 7.41785 41.6609 7.2568 41.1373 6.967V7.01363C41.1367 7.88381 41.4376 8.72733 41.9886 9.40079C42.5397 10.0743 43.307 10.5361 44.1601 10.7078C43.6059 10.8594 43.0244 10.8815 42.4604 10.7724C42.7011 11.5207 43.1694 12.1753 43.8001 12.6446C44.4307 13.114 45.1921 13.3748 45.9781 13.3906C44.6438 14.4387 42.9955 15.0072 41.2987 15.0046C40.9978 15.0041 40.6971 14.9856 40.3984 14.9493C42.1222 16.0552 44.1274 16.6425 46.1754 16.6415Z" fill="white"/>
</g>
<g clip-path="url(#clip3_1_95)">
<path d="M18.3633 9.18167C18.3633 4.11077 14.2526 0 9.18167 0C4.11077 0 0 4.11077 0 9.18167C0 13.7644 3.35759 17.563 7.74704 18.2518V11.8358H5.41575V9.18167H7.74704V7.15884C7.74704 4.85768 9.11783 3.58659 11.2151 3.58659C12.2193 3.58659 13.2704 3.76592 13.2704 3.76592V6.02547H12.1126C10.9721 6.02547 10.6163 6.73329 10.6163 7.46011V9.18167H13.1628L12.7557 11.8358H10.6163V18.2518C15.0058 17.563 18.3633 13.7644 18.3633 9.18167Z" fill="white"/>
</g>
</g>
<defs>
<clipPath id="clip0_1_95">
<rect width="18.3633" height="18.3633" fill="white" transform="translate(121.199)"/>
</clipPath>
<clipPath id="clip1_1_95">
<rect width="18.3633" height="18.3633" fill="white" transform="translate(80.7969)"/>
</clipPath>
<clipPath id="clip2_1_95">
<rect width="18.3633" height="18.3633" fill="white" transform="translate(40.3984)"/>
</clipPath>
<clipPath id="clip3_1_95">
<rect width="18.3633" height="18.3633" fill="white"/>
</clipPath>
</defs>
</svg>
