<svg width="140" height="19" viewBox="0 0 140 19" fill="none" xmlns="http://www.w3.org/2000/svg">
<g opacity="0.5">
<g clip-path="url(#clip0_1_473)">
<path d="M138.201 0.87915H122.553C121.803 0.87915 121.197 1.4403 121.197 2.13409V17.0335C121.197 17.7273 121.803 18.2919 122.553 18.2919H138.201C138.951 18.2919 139.561 17.7273 139.561 17.0369V2.13409C139.561 1.4403 138.951 0.87915 138.201 0.87915ZM126.645 15.7174H123.919V7.40551H126.645V15.7174ZM125.282 6.27301C124.407 6.27301 123.701 5.60303 123.701 4.7766C123.701 3.95018 124.407 3.2802 125.282 3.2802C126.154 3.2802 126.86 3.95018 126.86 4.7766C126.86 5.59962 126.154 6.27301 125.282 6.27301ZM136.846 15.7174H134.123V11.6771C134.123 10.7146 134.105 9.47327 132.707 9.47327C131.29 9.47327 131.075 10.5242 131.075 11.609V15.7174H128.356V7.40551H130.967V8.54142H131.003C131.365 7.88844 132.255 7.19806 133.578 7.19806C136.336 7.19806 136.846 8.91892 136.846 11.1567V15.7174Z" fill="white"/>
</g>
<g clip-path="url(#clip1_1_473)">
<path d="M89.9805 2.44697C92.4337 2.44697 92.7242 2.45718 93.689 2.49799C94.5857 2.5354 95.0699 2.67824 95.3927 2.79727C95.8195 2.95371 96.1279 3.14416 96.4471 3.44684C96.7699 3.75293 96.9672 4.042 97.1322 4.44671C97.2577 4.7528 97.4083 5.21532 97.4478 6.06215C97.4908 6.9804 97.5016 7.25587 97.5016 9.5787C97.5016 11.9049 97.4908 12.1804 97.4478 13.0952C97.4083 13.9455 97.2577 14.4046 97.1322 14.7107C96.9672 15.1154 96.7663 15.4079 96.4471 15.7106C96.1243 16.0166 95.8195 16.2037 95.3927 16.3601C95.0699 16.4792 94.5821 16.622 93.689 16.6594C92.7207 16.7002 92.4301 16.7104 89.9805 16.7104C87.5273 16.7104 87.2368 16.7002 86.272 16.6594C85.3753 16.622 84.8911 16.4792 84.5683 16.3601C84.1415 16.2037 83.8331 16.0132 83.5139 15.7106C83.1911 15.4045 82.9938 15.1154 82.8288 14.7107C82.7033 14.4046 82.5527 13.9421 82.5132 13.0952C82.4702 12.177 82.4594 11.9015 82.4594 9.5787C82.4594 7.25247 82.4702 6.977 82.5132 6.06215C82.5527 5.21192 82.7033 4.7528 82.8288 4.44671C82.9938 4.042 83.1947 3.74953 83.5139 3.44684C83.8367 3.14076 84.1415 2.95371 84.5683 2.79727C84.8911 2.67824 85.3789 2.5354 86.272 2.49799C87.2368 2.45718 87.5273 2.44697 89.9805 2.44697ZM89.9805 0.87915C87.4878 0.87915 87.1758 0.889353 86.1966 0.930164C85.2211 0.970975 84.5504 1.12062 83.9694 1.33487C83.3632 1.55933 82.8504 1.85521 82.3411 2.34155C81.8282 2.82448 81.5161 3.31081 81.2794 3.88216C81.0535 4.43651 80.8957 5.06908 80.8526 5.99413C80.8096 6.92598 80.7988 7.22186 80.7988 9.5855C80.7988 11.9491 80.8096 12.245 80.8526 13.1735C80.8957 14.0985 81.0535 14.7345 81.2794 15.2854C81.5161 15.8602 81.8282 16.3465 82.3411 16.8295C82.8504 17.3124 83.3632 17.6117 83.9658 17.8327C84.5504 18.047 85.2175 18.1966 86.1931 18.2374C87.1722 18.2782 87.4842 18.2884 89.9769 18.2884C92.4696 18.2884 92.7816 18.2782 93.7608 18.2374C94.7363 18.1966 95.407 18.047 95.988 17.8327C96.5906 17.6117 97.1035 17.3124 97.6128 16.8295C98.1221 16.3465 98.4377 15.8602 98.6708 15.2888C98.8968 14.7345 99.0546 14.1019 99.0976 13.1769C99.1407 12.2484 99.1514 11.9525 99.1514 9.5889C99.1514 7.22526 99.1407 6.92938 99.0976 6.00093C99.0546 5.07588 98.8968 4.43991 98.6708 3.88896C98.4449 3.31081 98.1328 2.82448 97.6199 2.34155C97.1106 1.85861 96.5978 1.55933 95.9952 1.33827C95.4106 1.12402 94.7435 0.974376 93.7679 0.933565C92.7852 0.889353 92.4732 0.87915 89.9805 0.87915Z" fill="white"/>
<path d="M89.98 5.11334C87.3762 5.11334 85.2637 7.11648 85.2637 9.58555C85.2637 12.0546 87.3762 14.0578 89.98 14.0578C92.5839 14.0578 94.6964 12.0546 94.6964 9.58555C94.6964 7.11648 92.5839 5.11334 89.98 5.11334ZM89.98 12.4865C88.2908 12.4865 86.9207 11.1874 86.9207 9.58555C86.9207 7.98372 88.2908 6.68457 89.98 6.68457C91.6693 6.68457 93.0394 7.98372 93.0394 9.58555C93.0394 11.1874 91.6693 12.4865 89.98 12.4865Z" fill="white"/>
<path d="M95.9854 4.93648C95.9854 5.51463 95.4904 5.98056 94.8843 5.98056C94.2746 5.98056 93.7832 5.51123 93.7832 4.93648C93.7832 4.35832 94.2782 3.8924 94.8843 3.8924C95.4904 3.8924 95.9854 4.36172 95.9854 4.93648Z" fill="white"/>
</g>
<g clip-path="url(#clip2_1_473)">
<path d="M46.1773 16.6595C53.1052 16.6595 56.8955 11.2157 56.8955 6.49621C56.8955 6.34316 56.8919 6.18672 56.8847 6.03368C57.6221 5.52806 58.2584 4.90178 58.7637 4.18426C58.077 4.47397 57.348 4.66317 56.6014 4.74541C57.3875 4.29861 57.9761 3.59671 58.258 2.76982C57.5185 3.1854 56.7098 3.47855 55.8665 3.63671C55.2983 3.06424 54.547 2.68519 53.7289 2.55817C52.9107 2.43116 52.0712 2.56325 51.3402 2.93403C50.6091 3.30481 50.0272 3.89362 49.6845 4.60943C49.3417 5.32524 49.2572 6.12818 49.444 6.89411C47.9466 6.82286 46.4817 6.45401 45.1442 5.81148C43.8068 5.16895 42.6267 4.26707 41.6804 3.16433C41.1995 3.9506 41.0523 4.88102 41.2688 5.76649C41.4854 6.65196 42.0493 7.42603 42.8461 7.93139C42.2479 7.91339 41.6629 7.76067 41.1392 7.48587V7.53008C41.1387 8.35522 41.4395 9.15507 41.9906 9.79367C42.5417 10.4323 43.3089 10.8702 44.162 11.033C43.6079 11.1768 43.0263 11.1977 42.4623 11.0942C42.703 11.8039 43.1714 12.4245 43.802 12.8696C44.4327 13.3147 45.1941 13.5619 45.9801 13.5769C44.6457 14.5708 42.9974 15.1099 41.3006 15.1073C40.9997 15.1069 40.6991 15.0894 40.4004 15.055C42.1241 16.1036 44.1293 16.6605 46.1773 16.6595Z" fill="white"/>
</g>
<g clip-path="url(#clip3_1_473)">
<path d="M18.3633 9.5855C18.3633 4.77711 14.2526 0.87915 9.18167 0.87915C4.11077 0.87915 0 4.77711 0 9.5855C0 13.931 3.35759 17.5329 7.74704 18.1861V12.1022H5.41575V9.5855H7.74704V7.66738C7.74704 5.48535 9.11783 4.28007 11.2151 4.28007C12.2193 4.28007 13.2704 4.45011 13.2704 4.45011V6.59269H12.1126C10.9721 6.59269 10.6163 7.26386 10.6163 7.95306V9.5855H13.1628L12.7557 12.1022H10.6163V18.1861C15.0058 17.5329 18.3633 13.931 18.3633 9.5855Z" fill="white"/>
</g>
</g>
<defs>
<clipPath id="clip0_1_473">
<rect width="18.3633" height="17.4127" fill="white" transform="translate(121.197 0.87915)"/>
</clipPath>
<clipPath id="clip1_1_473">
<rect width="18.3633" height="17.4127" fill="white" transform="translate(80.7988 0.87915)"/>
</clipPath>
<clipPath id="clip2_1_473">
<rect width="18.3633" height="17.4127" fill="white" transform="translate(40.4004 0.87915)"/>
</clipPath>
<clipPath id="clip3_1_473">
<rect width="18.3633" height="17.4127" fill="white" transform="translate(0 0.87915)"/>
</clipPath>
</defs>
</svg>
