<svg width="141" height="19" viewBox="0 0 141 19" fill="none" xmlns="http://www.w3.org/2000/svg">
<g opacity="0.5">
<g clip-path="url(#clip0_1_191)">
<path d="M138.691 0.636719H123.042C122.293 0.636719 121.687 1.22851 121.687 1.96017V17.673C121.687 18.4047 122.293 19.0001 123.042 19.0001H138.691C139.44 19.0001 140.05 18.4047 140.05 17.6766V1.96017C140.05 1.22851 139.44 0.636719 138.691 0.636719ZM127.135 16.285H124.409V7.51939H127.135V16.285ZM125.772 6.32505C124.897 6.32505 124.19 5.61849 124.19 4.74695C124.19 3.87541 124.897 3.16885 125.772 3.16885C126.643 3.16885 127.35 3.87541 127.35 4.74695C127.35 5.61491 126.643 6.32505 125.772 6.32505ZM137.335 16.285H134.613V12.0241C134.613 11.0091 134.595 9.70004 133.196 9.70004C131.779 9.70004 131.564 10.8083 131.564 11.9524V16.285H128.845V7.51939H131.456V8.71731H131.492C131.855 8.02868 132.744 7.30061 134.067 7.30061C136.826 7.30061 137.335 9.11542 137.335 11.4754V16.285V16.285Z" fill="white"/>
</g>
<g clip-path="url(#clip1_1_191)">
<path d="M90.4688 2.29014C92.922 2.29014 93.2125 2.3009 94.1773 2.34394C95.074 2.38339 95.5582 2.53403 95.881 2.65956C96.3078 2.82454 96.6162 3.02539 96.9354 3.3446C97.2582 3.66739 97.4555 3.97225 97.6204 4.39905C97.746 4.72185 97.8966 5.20962 97.9361 6.10268C97.9791 7.07106 97.9899 7.36158 97.9899 9.81122C97.9899 12.2644 97.9791 12.555 97.9361 13.5198C97.8966 14.4164 97.746 14.9006 97.6204 15.2234C97.4555 15.6502 97.2546 15.9586 96.9354 16.2778C96.6126 16.6006 96.3078 16.7979 95.881 16.9629C95.5582 17.0884 95.0704 17.239 94.1773 17.2785C93.2089 17.3215 92.9184 17.3323 90.4688 17.3323C88.0156 17.3323 87.725 17.3215 86.7602 17.2785C85.8636 17.239 85.3794 17.0884 85.0566 16.9629C84.6298 16.7979 84.3214 16.5971 84.0022 16.2778C83.6794 15.9551 83.4821 15.6502 83.3171 15.2234C83.1916 14.9006 83.041 14.4128 83.0015 13.5198C82.9585 12.5514 82.9477 12.2609 82.9477 9.81122C82.9477 7.35799 82.9585 7.06748 83.0015 6.10268C83.041 5.20604 83.1916 4.72185 83.3171 4.39905C83.4821 3.97225 83.683 3.6638 84.0022 3.3446C84.325 3.0218 84.6298 2.82454 85.0566 2.65956C85.3794 2.53403 85.8672 2.38339 86.7602 2.34394C87.725 2.3009 88.0156 2.29014 90.4688 2.29014ZM90.4688 0.636719C87.9761 0.636719 87.6641 0.647479 86.6849 0.690518C85.7094 0.733557 85.0387 0.891367 84.4577 1.11732C83.8515 1.35404 83.3386 1.66607 82.8293 2.17895C82.3165 2.68825 82.0044 3.20113 81.7677 3.80368C81.5418 4.38829 81.3839 5.0554 81.3409 6.03095C81.2979 7.01368 81.2871 7.32571 81.2871 9.81839C81.2871 12.3111 81.2979 12.6231 81.3409 13.6022C81.3839 14.5778 81.5418 15.2485 81.7677 15.8295C82.0044 16.4357 82.3165 16.9485 82.8293 17.4578C83.3386 17.9671 83.8515 18.2827 84.4541 18.5159C85.0387 18.7418 85.7058 18.8996 86.6813 18.9427C87.6605 18.9857 87.9725 18.9965 90.4652 18.9965C92.9579 18.9965 93.2699 18.9857 94.2491 18.9427C95.2246 18.8996 95.8953 18.7418 96.4763 18.5159C97.0789 18.2827 97.5918 17.9671 98.1011 17.4578C98.6103 16.9485 98.926 16.4357 99.1591 15.8331C99.3851 15.2485 99.5429 14.5814 99.5859 13.6058C99.6289 12.6267 99.6397 12.3147 99.6397 9.82198C99.6397 7.3293 99.6289 7.01726 99.5859 6.03813C99.5429 5.06257 99.3851 4.39188 99.1591 3.81085C98.9331 3.20113 98.6211 2.68825 98.1082 2.17895C97.5989 1.66966 97.086 1.35404 96.4835 1.12091C95.8989 0.894953 95.2318 0.737143 94.2562 0.694104C93.2735 0.647479 92.9615 0.636719 90.4688 0.636719Z" fill="white"/>
<path d="M90.4683 5.10205C87.8645 5.10205 85.752 7.21455 85.752 9.81842C85.752 12.4223 87.8645 14.5348 90.4683 14.5348C93.0722 14.5348 95.1847 12.4223 95.1847 9.81842C95.1847 7.21455 93.0722 5.10205 90.4683 5.10205ZM90.4683 12.8778C88.779 12.8778 87.409 11.5077 87.409 9.81842C87.409 8.12913 88.779 6.75906 90.4683 6.75906C92.1576 6.75906 93.5277 8.12913 93.5277 9.81842C93.5277 11.5077 92.1576 12.8778 90.4683 12.8778Z" fill="white"/>
<path d="M96.4727 4.91554C96.4727 5.52526 95.9777 6.01662 95.3716 6.01662C94.7619 6.01662 94.2705 5.52167 94.2705 4.91554C94.2705 4.30582 94.7655 3.81445 95.3716 3.81445C95.9777 3.81445 96.4727 4.3094 96.4727 4.91554Z" fill="white"/>
</g>
<g clip-path="url(#clip2_1_191)">
<path d="M46.6646 17.2786C53.5925 17.2786 57.3828 11.5375 57.3828 6.56039C57.3828 6.39899 57.3792 6.23401 57.372 6.07261C58.1094 5.53939 58.7457 4.87891 59.251 4.12222C58.5643 4.42774 57.8353 4.62728 57.0887 4.71401C57.8748 4.24282 58.4634 3.50259 58.7453 2.63056C58.0058 3.06882 57.1971 3.37798 56.3538 3.54478C55.7856 2.94105 55.0343 2.54131 54.2162 2.40736C53.398 2.27341 52.5585 2.41271 51.8275 2.80373C51.0964 3.19475 50.5145 3.81571 50.1718 4.57061C49.829 5.3255 49.7445 6.17227 49.9313 6.98002C48.4339 6.90488 46.969 6.51589 45.6315 5.83828C44.2941 5.16067 43.114 4.20956 42.1677 3.0466C41.6868 3.87581 41.5396 4.85702 41.7562 5.79083C41.9727 6.72465 42.5366 7.54098 43.3334 8.07393C42.7352 8.05494 42.1502 7.89389 41.6265 7.60409V7.65071C41.626 8.5209 41.9268 9.36441 42.4779 10.0379C43.029 10.7113 43.7962 11.1732 44.6493 11.3449C44.0952 11.4965 43.5136 11.5186 42.9496 11.4095C43.1903 12.1578 43.6587 12.8124 44.2893 13.2817C44.92 13.7511 45.6814 14.0119 46.4674 14.0277C45.133 15.0758 43.4847 15.6443 41.7879 15.6416C41.487 15.6412 41.1864 15.6227 40.8877 15.5864C42.6114 16.6923 44.6166 17.2796 46.6646 17.2786Z" fill="white"/>
</g>
<g clip-path="url(#clip3_1_191)">
<path d="M18.8516 9.81839C18.8516 4.74749 14.7409 0.636719 9.66996 0.636719C4.59905 0.636719 0.488281 4.74749 0.488281 9.81839C0.488281 14.4012 3.84587 18.1997 8.23532 18.8885V12.4725H5.90403V9.81839H8.23532V7.79556C8.23532 5.4944 9.60611 4.22331 11.7034 4.22331C12.7076 4.22331 13.7587 4.40264 13.7587 4.40264V6.66219H12.6009C11.4604 6.66219 11.1046 7.37001 11.1046 8.09683V9.81839H13.6511L13.244 12.4725H11.1046V18.8885C15.494 18.1997 18.8516 14.4012 18.8516 9.81839Z" fill="white"/>
</g>
</g>
<defs>
<clipPath id="clip0_1_191">
<rect width="18.3633" height="18.3633" fill="white" transform="translate(121.687 0.636719)"/>
</clipPath>
<clipPath id="clip1_1_191">
<rect width="18.3633" height="18.3633" fill="white" transform="translate(81.2871 0.636719)"/>
</clipPath>
<clipPath id="clip2_1_191">
<rect width="18.3633" height="18.3633" fill="white" transform="translate(40.8877 0.636719)"/>
</clipPath>
<clipPath id="clip3_1_191">
<rect width="18.3633" height="18.3633" fill="white" transform="translate(0.488281 0.636719)"/>
</clipPath>
</defs>
</svg>
