<svg width="141" height="18" viewBox="0 0 141 18" fill="none" xmlns="http://www.w3.org/2000/svg">
<g opacity="0.5">
<g clip-path="url(#clip0_1_449)">
<path d="M138.69 0.540527H123.041C122.292 0.540527 121.686 1.10168 121.686 1.79547V16.6949C121.686 17.3887 122.292 17.9532 123.041 17.9532H138.69C139.439 17.9532 140.049 17.3887 140.049 16.6983V1.79547C140.049 1.10168 139.439 0.540527 138.69 0.540527ZM127.134 15.3787H124.408V7.06689H127.134V15.3787ZM125.771 5.93438C124.896 5.93438 124.189 5.2644 124.189 4.43798C124.189 3.61156 124.896 2.94158 125.771 2.94158C126.642 2.94158 127.349 3.61156 127.349 4.43798C127.349 5.261 126.642 5.93438 125.771 5.93438ZM137.334 15.3787H134.612V11.3384C134.612 10.376 134.594 9.13465 133.195 9.13465C131.778 9.13465 131.563 10.1855 131.563 11.2704V15.3787H128.844V7.06689H131.455V8.2028H131.491C131.854 7.54982 132.743 6.85943 134.066 6.85943C136.825 6.85943 137.334 8.5803 137.334 10.8181V15.3787Z" fill="white"/>
</g>
<g clip-path="url(#clip1_1_449)">
<path d="M90.4688 2.10835C92.922 2.10835 93.2125 2.11855 94.1773 2.15936C95.074 2.19677 95.5582 2.33961 95.881 2.45865C96.3078 2.61509 96.6162 2.80554 96.9354 3.10822C97.2582 3.4143 97.4555 3.70338 97.6204 4.10809C97.746 4.41417 97.8966 4.8767 97.9361 5.72353C97.9791 6.64177 97.9899 6.91725 97.9899 9.24008C97.9899 11.5663 97.9791 11.8418 97.9361 12.7566C97.8966 13.6069 97.746 14.066 97.6204 14.3721C97.4555 14.7768 97.2546 15.0692 96.9354 15.3719C96.6126 15.678 96.3078 15.8651 95.881 16.0215C95.5582 16.1405 95.0704 16.2834 94.1773 16.3208C93.2089 16.3616 92.9184 16.3718 90.4688 16.3718C88.0156 16.3718 87.725 16.3616 86.7602 16.3208C85.8636 16.2834 85.3794 16.1405 85.0566 16.0215C84.6298 15.8651 84.3214 15.6746 84.0022 15.3719C83.6794 15.0658 83.4821 14.7768 83.3171 14.3721C83.1916 14.066 83.041 13.6035 83.0015 12.7566C82.9585 11.8384 82.9477 11.5629 82.9477 9.24008C82.9477 6.91385 82.9585 6.63837 83.0015 5.72353C83.041 4.8733 83.1916 4.41417 83.3171 4.10809C83.4821 3.70338 83.683 3.4109 84.0022 3.10822C84.325 2.80214 84.6298 2.61509 85.0566 2.45865C85.3794 2.33961 85.8672 2.19677 86.7602 2.15936C87.725 2.11855 88.0156 2.10835 90.4688 2.10835ZM90.4688 0.540527C87.9761 0.540527 87.6641 0.55073 86.6849 0.591541C85.7094 0.632352 85.0387 0.781992 84.4577 0.99625C83.8515 1.22071 83.3386 1.51659 82.8293 2.00292C82.3165 2.48585 82.0044 2.97218 81.7677 3.54354C81.5418 4.09789 81.3839 4.73046 81.3409 5.65551C81.2979 6.58736 81.2871 6.88324 81.2871 9.24688C81.2871 11.6105 81.2979 11.9064 81.3409 12.8348C81.3839 13.7599 81.5418 14.3959 81.7677 14.9468C82.0044 15.5216 82.3165 16.0079 82.8293 16.4908C83.3386 16.9738 83.8515 17.273 84.4541 17.4941C85.0387 17.7084 85.7058 17.858 86.6813 17.8988C87.6605 17.9396 87.9725 17.9498 90.4652 17.9498C92.9579 17.9498 93.2699 17.9396 94.2491 17.8988C95.2246 17.858 95.8953 17.7084 96.4763 17.4941C97.0789 17.273 97.5918 16.9738 98.1011 16.4908C98.6103 16.0079 98.926 15.5216 99.1591 14.9502C99.385 14.3959 99.5429 13.7633 99.5859 12.8382C99.6289 11.9098 99.6397 11.6139 99.6397 9.25028C99.6397 6.88664 99.6289 6.59076 99.5859 5.66231C99.5429 4.73726 99.385 4.10129 99.1591 3.55034C98.9331 2.97218 98.6211 2.48585 98.1082 2.00292C97.5989 1.51999 97.086 1.22071 96.4835 0.999651C95.8989 0.785393 95.2318 0.635753 94.2562 0.594942C93.2735 0.55073 92.9615 0.540527 90.4688 0.540527Z" fill="white"/>
<path d="M90.4683 4.77472C87.8645 4.77472 85.752 6.77786 85.752 9.24693C85.752 11.716 87.8645 13.7191 90.4683 13.7191C93.0722 13.7191 95.1847 11.716 95.1847 9.24693C95.1847 6.77786 93.0722 4.77472 90.4683 4.77472ZM90.4683 12.1479C88.779 12.1479 87.409 10.8488 87.409 9.24693C87.409 7.64509 88.779 6.34594 90.4683 6.34594C92.1576 6.34594 93.5277 7.64509 93.5277 9.24693C93.5277 10.8488 92.1576 12.1479 90.4683 12.1479Z" fill="white"/>
<path d="M96.4737 4.59785C96.4737 5.17601 95.9787 5.64194 95.3726 5.64194C94.7628 5.64194 94.2715 5.17261 94.2715 4.59785C94.2715 4.0197 94.7664 3.55377 95.3726 3.55377C95.9787 3.55377 96.4737 4.0231 96.4737 4.59785Z" fill="white"/>
</g>
<g clip-path="url(#clip2_1_449)">
<path d="M46.6656 16.3209C53.5935 16.3209 57.3838 10.877 57.3838 6.15758C57.3838 6.00454 57.3802 5.8481 57.373 5.69506C58.1103 5.18944 58.7466 4.56316 59.252 3.84564C58.5653 4.13534 57.8362 4.32455 57.0897 4.40679C57.8757 3.95999 58.4643 3.25809 58.7463 2.4312C58.0068 2.84677 57.1981 3.13993 56.3548 3.29809C55.7866 2.72561 55.0353 2.34656 54.2172 2.21955C53.399 2.09253 52.5595 2.22463 51.8284 2.59541C51.0974 2.96618 50.5155 3.555 50.1728 4.27081C49.83 4.98662 49.7455 5.78956 49.9323 6.55549C48.4349 6.48424 46.97 6.11539 45.6325 5.47286C44.2951 4.83032 43.115 3.92845 42.1687 2.8257C41.6878 3.61198 41.5406 4.5424 41.7571 5.42787C41.9736 6.31334 42.5376 7.08741 43.3344 7.59277C42.7362 7.57476 42.1511 7.42205 41.6275 7.14725V7.19146C41.627 8.0166 41.9278 8.81645 42.4789 9.45505C43.0299 10.0936 43.7972 10.5316 44.6503 10.6944C44.0962 10.8382 43.5146 10.8591 42.9506 10.7556C43.1913 11.4652 43.6597 12.0859 44.2903 12.531C44.9209 12.976 45.6824 13.2233 46.4683 13.2383C45.134 14.2322 43.4857 14.7713 41.7889 14.7687C41.488 14.7683 41.1874 14.7508 40.8887 14.7163C42.6124 15.765 44.6176 16.3219 46.6656 16.3209Z" fill="white"/>
</g>
<g clip-path="url(#clip3_1_449)">
<path d="M18.8516 9.24688C18.8516 4.43849 14.7409 0.540527 9.66996 0.540527C4.59905 0.540527 0.488281 4.43849 0.488281 9.24688C0.488281 13.5924 3.84587 17.1943 8.23532 17.8475V11.7636H5.90403V9.24688H8.23532V7.32876C8.23532 5.14673 9.60611 3.94145 11.7034 3.94145C12.7076 3.94145 13.7587 4.11149 13.7587 4.11149V6.25407H12.6009C11.4604 6.25407 11.1046 6.92524 11.1046 7.61444V9.24688H13.6511L13.244 11.7636H11.1046V17.8475C15.494 17.1943 18.8516 13.5924 18.8516 9.24688Z" fill="white"/>
</g>
</g>
<defs>
<clipPath id="clip0_1_449">
<rect width="18.3633" height="17.4127" fill="white" transform="translate(121.686 0.540527)"/>
</clipPath>
<clipPath id="clip1_1_449">
<rect width="18.3633" height="17.4127" fill="white" transform="translate(81.2871 0.540527)"/>
</clipPath>
<clipPath id="clip2_1_449">
<rect width="18.3633" height="17.4127" fill="white" transform="translate(40.8887 0.540527)"/>
</clipPath>
<clipPath id="clip3_1_449">
<rect width="18.3633" height="17.4127" fill="white" transform="translate(0.488281 0.540527)"/>
</clipPath>
</defs>
</svg>
