<svg width="19" height="19" viewBox="0 0 19 19" fill="none" xmlns="http://www.w3.org/2000/svg">
<g clip-path="url(#clip0_1_224)">
<path d="M6.17634 16.6418C13.1042 16.6418 16.8945 10.9008 16.8945 5.92367C16.8945 5.76227 16.8909 5.59729 16.8837 5.43589C17.6211 4.90267 18.2574 4.24219 18.7628 3.4855C18.0761 3.79103 17.347 3.99056 16.6004 4.07729C17.3865 3.6061 17.9751 2.86587 18.2571 1.99384C17.5175 2.43211 16.7088 2.74126 15.8655 2.90806C15.2973 2.30433 14.5461 1.90459 13.7279 1.77064C12.9097 1.63669 12.0702 1.77599 11.3392 2.16701C10.6081 2.55804 10.0262 3.179 9.6835 3.93389C9.34075 4.68878 9.25623 5.53556 9.443 6.3433C7.9456 6.26816 6.48069 5.87917 5.14327 5.20156C3.80584 4.52395 2.62574 3.57284 1.67947 2.40989C1.19853 3.23909 1.05136 4.2203 1.26787 5.15412C1.48439 6.08793 2.04834 6.90426 2.84511 7.43721C2.24694 7.41822 1.66188 7.25717 1.13825 6.96737V7.01399C1.13772 7.88418 1.43855 8.7277 1.98961 9.40116C2.54067 10.0746 3.30796 10.5365 4.16103 10.7082C3.60692 10.8598 3.02536 10.8819 2.46135 10.7727C2.70207 11.5211 3.17042 12.1756 3.80105 12.645C4.43168 13.1144 5.19311 13.3752 5.97907 13.391C4.64473 14.4391 2.99643 15.0076 1.29965 15.0049C0.998738 15.0045 0.698124 14.986 0.399414 14.9497C2.12316 16.0556 4.12835 16.6429 6.17634 16.6418Z" fill="white"/>
</g>
<defs>
<clipPath id="clip0_1_224">
<rect width="18.3633" height="18.3633" fill="white" transform="translate(0.399414)"/>
</clipPath>
</defs>
</svg>
