<svg width="15" height="8" viewBox="0 0 15 8" fill="none" xmlns="http://www.w3.org/2000/svg">
<path d="M14.5 6.39056C14.4963 6.39755 14.4873 6.41126 14.4675 6.43222C14.4147 6.48834 14.3121 6.56486 14.1363 6.65058C13.7853 6.82177 13.2501 6.97848 12.5631 7.10876C11.1983 7.36757 9.35695 7.5 7.5 7.5C5.64305 7.5 3.80174 7.36757 2.4369 7.10876C1.74989 6.97848 1.21474 6.82177 0.863676 6.65058C0.687867 6.56486 0.585308 6.48834 0.532465 6.43222C0.512725 6.41126 0.503747 6.39755 0.500011 6.39056C0.502246 5.42163 0.848659 3.94731 1.88215 2.72244C2.90274 1.51285 4.63208 0.5 7.5 0.5C10.3679 0.5 12.0973 1.51285 13.1179 2.72244C14.1513 3.94731 14.4978 5.42163 14.5 6.39056ZM14.5023 6.38503C14.5024 6.38501 14.5022 6.38601 14.5013 6.38804C14.5017 6.38606 14.5022 6.38504 14.5023 6.38503ZM0.49767 6.38503C0.497784 6.38504 0.498256 6.38606 0.498747 6.38804C0.497801 6.38601 0.497556 6.38502 0.49767 6.38503Z" stroke="#7F012F"/>
</svg>
